HIERARCHY
ROOT root
{
	OFFSET	0	13.1	24.9
	CHANNELS 6  Xposition Yposition Zposition Xrotation Yrotation Zrotation
	JOINT spine_1
	{
		OFFSET	0	9.99999	0
		CHANNELS 3  Xrotation Yrotation Zrotation
		JOINT spine_2
		{
			OFFSET	0	112	-10
			CHANNELS 3  Xrotation Yrotation Zrotation
			JOINT spine_3
			{
				OFFSET	0	206.5	19.3
				CHANNELS 3  Xrotation Yrotation Zrotation
				JOINT spine_4
				{
					OFFSET	0	110.4	14.6
					CHANNELS 3  Xrotation Yrotation Zrotation
					JOINT neck_1
					{
						OFFSET	0	71.8	-50.3
						CHANNELS 3  Xrotation Yrotation Zrotation
						JOINT neck_2
						{
							OFFSET	0	86.2	-25.8
							CHANNELS 3  Xrotation Yrotation Zrotation
							JOINT head_ee
							{
								OFFSET	0	179.8	-8.7
								CHANNELS 3  Xrotation Yrotation Zrotation
								End Site
								{
									OFFSET	1	0	0
								}
							}
						}
					}
					JOINT left_clavicle
					{
						OFFSET	-43.2	22.4	-70.8
						CHANNELS 3  Xrotation Yrotation Zrotation
						JOINT left_shoulder
						{
							OFFSET	-93.9	-5.79999	48.7
							CHANNELS 3  Xrotation Yrotation Zrotation
							JOINT left_elbow
							{
								OFFSET	-291.4	-30.8	15.2
								CHANNELS 3  Xrotation Yrotation Zrotation
								JOINT left_lowarm_twist
								{
									OFFSET	-110.7	-3.89999	13.6
									CHANNELS 3  Xrotation Yrotation Zrotation
									JOINT left_hand
									{
										OFFSET	-110.7	-3.89999	13.6
										CHANNELS 3  Xrotation Yrotation Zrotation
										JOINT left_ee
										{
											OFFSET	-80.8	-5.10001	12.1
											CHANNELS 3  Xrotation Yrotation Zrotation
											End Site
											{
												OFFSET	1	0	0
											}
										}
									}
								}
							}
						}
					}
					JOINT right_clavicle
					{
						OFFSET	43.2	22.4	-70.8
						CHANNELS 3  Xrotation Yrotation Zrotation
						JOINT right_shoulder
						{
							OFFSET	93.9	-5.79999	48.7
							CHANNELS 3  Xrotation Yrotation Zrotation
							JOINT right_elbow
							{
								OFFSET	291.4	-30.8	15.2
								CHANNELS 3  Xrotation Yrotation Zrotation
								JOINT right_lowarm_twist
								{
									OFFSET	110.7	-3.89999	13.6
									CHANNELS 3  Xrotation Yrotation Zrotation
									JOINT right_hand
									{
										OFFSET	110.7	-3.89999	13.6
										CHANNELS 3  Xrotation Yrotation Zrotation
										JOINT right_ee
										{
											OFFSET	80.8	-5.10001	12.1
											CHANNELS 3  Xrotation Yrotation Zrotation
											End Site
											{
												OFFSET	1	0	0
											}
										}
									}
								}
							}
						}
					}
				}
			}
		}
	}
	JOINT left_hip
	{
		OFFSET	-82.8	-127.5	0.300001
		CHANNELS 3  Xrotation Yrotation Zrotation
		JOINT left_knee
		{
			OFFSET	-28.2	-396.7	2.2
			CHANNELS 3  Xrotation Yrotation Zrotation
			JOINT left_ankle
			{
				OFFSET	-11.7	-411.3	35.4
				CHANNELS 3  Xrotation Yrotation Zrotation
				JOINT left_toes
				{
					OFFSET	0	-60	-88.6
					CHANNELS 3  Xrotation Yrotation Zrotation
					JOINT left_foot_ee
					{
						OFFSET	-22.5	-16.5	-42.2
						CHANNELS 3  Xrotation Yrotation Zrotation
						End Site
						{
							OFFSET	1	0	0
						}
					}
				}
			}
		}
	}
	JOINT right_hip
	{
		OFFSET	82.8	-127.5	0.300001
		CHANNELS 3  Xrotation Yrotation Zrotation
		JOINT right_knee
		{
			OFFSET	28.2	-396.7	2.2
			CHANNELS 3  Xrotation Yrotation Zrotation
			JOINT right_ankle
			{
				OFFSET	11.7	-411.3	35.4
				CHANNELS 3  Xrotation Yrotation Zrotation
				JOINT right_toes
				{
					OFFSET	0	-60	-88.6
					CHANNELS 3  Xrotation Yrotation Zrotation
					JOINT right_foot_ee
					{
						OFFSET	22.5	-16.5	-42.2
						CHANNELS 3  Xrotation Yrotation Zrotation
						End Site
						{
							OFFSET	1	0	0
						}
					}
				}
			}
		}
	}
}
MOTION
Frames: 16
Frame Time: 0.02
1372.05 701.618 -1475.22 -26.5437262519 14.739152954 7.19547998396 8.92802 -0.00494708 1.28684 8.92894 -0.0868152 1.28392 8.92528 -0.158549 1.27705 8.923 0.0451097 1.28606 -10.0822 4.27699 -4.71557 -10.0529 11.2314 -3.53008 -0.0 0.0 -0.0 3.21035 2.35715 6.33175 -10.4836 -33.4885 51.1123 1.50868 -36.7704 0.501466 -77.8406 -7.5473 5.30361 -7.2901 19.5857 -39.0579 -0.0 0.0 -0.0 10.6228 5.75496 -21.1751 51.8377 -69.1149 2.62709 0.198184 5.60716 -0.0097053 72.6741 3.02246 8.1441 -1.1788 14.5505 14.238 0.0 0.0 0.0 13.4635 24.2559 6.52 -13.0312 0.313565 1.97094 39.7325 -11.4799 -5.03983 -10.8709 0.0 0.0 -0.0 0.0 -0.0 59.6367 -0.709337 -10.8524 -7.3571 -0.232262 -1.10443 8.19401 -5.17623 1.17321 -13.0212 0.0 0.0 0.0 0.0 0.0 
1338.25693646 697.675 -1524.66312395 -25.3369191077 17.2809435068 7.34450685753 8.8161 0.0474166 1.28381 8.81702 -0.034365 1.28423 8.81454 -0.10866 1.28009 8.81227 0.0948527 1.28118 -12.9506 5.08951 -4.67433 -12.9884 12.6117 -2.95212 -0.0 0.0 -0.0 2.37598 2.93034 4.79875 -10.1592 -34.128 55.7929 1.27326 -32.2396 0.367998 -75.371 -7.23226 5.31808 -7.02159 16.0049 -40.3868 -0.0 0.0 -0.0 11.2933 8.23299 -22.6827 57.3707 -69.5339 6.22041 0.213781 6.0453 -0.0112885 74.1881 3.18614 8.24881 -1.61688 16.7748 18.2159 0.0 0.0 0.0 12.0571 22.2374 6.55157 -18.9128 0.306991 2.87293 39.0254 -12.7341 -5.01087 -5.18961 0.0 0.0 -0.0 0.0 -0.0 61.3823 0.335945 -10.0882 -21.6121 -0.273 -3.28568 6.96383 7.26708 1.03668 -6.20445 0.0 0.0 0.0 0.0 0.0 
1318.69039793 698.895 -1553.2869009 -25.2444979101 18.4536644712 7.55748966783 8.78294 0.112211 1.26632 8.78383 0.0314118 1.27089 8.78284 -0.0429075 1.27055 8.78062 0.158275 1.26139 -13.0927 6.90226 -5.81289 -13.1799 16.7605 -3.46902 -0.0 0.0 -0.0 2.25951 3.72634 4.64015 -12.248 -34.354 56.3416 1.1649 -29.9863 0.311994 -80.9055 -7.9366 5.26663 -7.3768 13.9847 -45.5602 -0.0 0.0 -0.0 11.0496 4.70208 -22.0722 58.0662 -67.237 5.69872 0.20182 5.70934 -0.0100636 75.0408 3.27952 8.30588 -2.34811 10.3349 20.6707 0.0 0.0 0.0 12.1051 18.5782 6.67209 -21.796 0.269976 3.31374 38.5233 -11.3826 -4.92977 -2.73812 0.0 0.0 -0.0 0.0 -0.0 60.7759 1.71664 -9.69583 -23.5197 -0.237269 -3.5762 5.59985 7.6454 0.838965 -3.24631 0.0 0.0 0.0 0.0 0.0 
1319.58716982 698.895 -1553.892356 -25.1529534131 17.8604343278 7.26372708846 8.78294 0.112211 1.26632 8.78383 0.0314118 1.27089 8.78284 -0.0429075 1.27055 8.78062 0.158275 1.26139 -13.0927 6.90226 -5.81289 -13.1799 16.7605 -3.46902 -0.0 0.0 -0.0 2.25951 3.72634 4.64015 -12.248 -34.354 56.3416 1.1649 -29.9863 0.311994 -80.9055 -7.9366 5.26663 -7.3768 13.9847 -45.5602 -0.0 0.0 -0.0 11.0496 4.70208 -22.0722 58.0662 -67.237 5.69872 0.20182 5.70934 -0.0100636 75.0408 3.27952 8.30588 -2.34811 10.3349 20.6707 0.0 0.0 0.0 12.1051 18.5782 6.67209 -21.796 0.269976 3.31374 38.5233 -11.3826 -4.92977 -2.73812 0.0 0.0 -0.0 0.0 -0.0 60.7759 1.71664 -9.69583 -23.5197 -0.237269 -3.5762 5.59985 7.6454 0.838965 -3.24631 0.0 0.0 0.0 0.0 0.0 
1298.49355846 696.851 -1579.0616502 -25.1972472221 17.0862638614 6.86136330354 8.96584 0.177207 1.19165 8.96663 0.101026 1.20051 8.96719 0.0345922 1.20425 8.96524 0.224334 1.18368 -11.6021 7.55315 -6.43043 -11.6448 18.4695 -4.11359 -0.0 0.0 -0.0 1.6061 5.89003 3.61228 -12.709 -33.988 58.9398 1.08701 -28.3005 0.27406 -78.2696 -7.60192 5.2997 -7.23343 13.6645 -44.5525 -0.0 0.0 -0.0 11.0734 5.1007 -22.1363 62.6629 -67.7701 9.15463 0.224126 6.33549 -0.012404 76.0419 3.39021 8.37109 -1.81665 11.2412 17.282 0.0 0.0 0.0 13.2151 18.0705 6.4268 -25.9805 0.176919 3.94899 38.1478 -10.4806 -4.87362 0.738554 -0.0 -0.0 -0.0 0.0 -0.0 60.1435 2.44224 -9.8207 -25.8698 -0.179978 -3.93228 6.99676 7.24703 1.04137 0.822991 -0.0 -0.0 0.0 0.0 0.0 
1300.61434999 696.851 -1580.53185269 -25.0505500003 16.0342773525 6.34670403867 8.96584 0.177207 1.19165 8.96663 0.101026 1.20051 8.96719 0.0345922 1.20425 8.96524 0.224334 1.18368 -11.6021 7.55315 -6.43043 -11.6448 18.4695 -4.11359 -0.0 0.0 -0.0 1.6061 5.89003 3.61228 -12.709 -33.988 58.9398 1.08701 -28.3005 0.27406 -78.2696 -7.60192 5.2997 -7.23343 13.6645 -44.5525 -0.0 0.0 -0.0 11.0734 5.1007 -22.1363 62.6629 -67.7701 9.15463 0.224126 6.33549 -0.012404 76.0419 3.39021 8.37109 -1.81665 11.2412 17.282 0.0 0.0 0.0 13.2151 18.0705 6.4268 -25.9805 0.176919 3.94899 38.1478 -10.4806 -4.87362 0.738554 -0.0 -0.0 -0.0 0.0 -0.0 60.1435 2.44224 -9.8207 -25.8698 -0.179978 -3.93228 6.99676 7.24703 1.04137 0.822991 -0.0 -0.0 0.0 0.0 0.0 
1224.47905424 710.017 -1648.25267707 -24.0298988812 16.114420339 2.89602640191 8.88616 0.322507 1.91243 8.88818 0.200184 1.92906 8.89095 0.0908503 1.93729 8.88593 0.395614 1.89866 -11.6698 8.44236 -7.84406 -11.7062 21.0601 -5.22027 -0.0 0.0 -0.0 0.267076 16.1207 2.3132 -14.4763 -34.9121 63.502 0.712862 -19.4497 0.122172 -85.1986 -8.47675 5.17966 -6.29095 10.2824 -39.287 -0.0 0.0 -0.0 10.4693 0.71493 -20.6664 63.1395 -66.5482 4.11715 0.218299 6.17207 -0.0117693 76.7196 3.46579 8.41414 -1.60232 9.84945 15.1727 0.0 0.0 0.0 21.2676 14.4698 7.77327 -45.8633 -0.881277 6.79877 31.8534 -8.92899 -4.22333 3.8927 -0.0 -0.0 -0.0 0.0 -0.0 51.8183 0.605144 -4.91525 -25.9154 -0.178721 -3.93917 26.7296 5.22951 3.60318 -0.354513 0.0 0.0 0.0 0.0 0.0 
1229.25480914 710.017 -1652.21442035 -23.8551307554 14.6855432006 2.23796227149 8.88616 0.322507 1.91243 8.88818 0.200184 1.92906 8.89095 0.0908503 1.93729 8.88593 0.395614 1.89866 -11.6698 8.44236 -7.84406 -11.7062 21.0601 -5.22027 -0.0 0.0 -0.0 0.267076 16.1207 2.3132 -14.4763 -34.9121 63.502 0.712862 -19.4497 0.122172 -85.1986 -8.47675 5.17966 -6.29095 10.2824 -39.287 -0.0 0.0 -0.0 10.4693 0.71493 -20.6664 63.1395 -66.5482 4.11715 0.218299 6.17207 -0.0117693 76.7196 3.46579 8.41414 -1.60232 9.84945 15.1727 0.0 0.0 0.0 21.2676 14.4698 7.77327 -45.8633 -0.881277 6.79877 31.8534 -8.92899 -4.22333 3.8927 -0.0 -0.0 -0.0 0.0 -0.0 51.8183 0.605144 -4.91525 -25.9154 -0.178721 -3.93917 26.7296 5.22951 3.60318 -0.354513 0.0 0.0 0.0 0.0 0.0 
1226.27589095 709.298 -1667.70192274 -24.1719066312 13.8924772547 2.00402284217 9.11955 0.369636 1.835 9.12138 0.252141 1.85479 9.12577 0.154598 1.86545 9.12119 0.447222 1.81765 -11.9396 8.74549 -6.40003 -12.046 20.6869 -3.67485 -0.0 0.0 -0.0 -0.207998 13.6859 1.27352 -15.0375 -35.0381 66.0222 0.602512 -16.6187 0.0879984 -82.5537 -8.14482 5.23808 -6.37746 15.6415 -35.4856 -0.0 0.0 -0.0 10.7827 3.24022 -21.4446 61.8571 -67.2822 -1.6633 0.1965 5.55982 -0.00954139 74.2329 3.19102 8.25184 -2.36627 10.5987 20.9182 0.0 0.0 0.0 23.4158 7.56308 9.46279 -45.9637 -0.889087 6.81211 34.4839 -5.12757 -4.4253 5.9744 -0.0 -0.0 -0.0 0.0 -0.0 51.6682 2.65544 -5.67568 -26.2392 -0.169643 -3.98804 31.5452 -4.5155 4.05228 -0.939141 0.0 0.0 0.0 0.0 0.0 
1236.03373529 709.298 -1674.71675983 -23.9123384627 11.2877740611 0.8135552838 9.11955 0.369636 1.835 9.12138 0.252141 1.85479 9.12577 0.154598 1.86545 9.12119 0.447222 1.81765 -11.9396 8.74549 -6.40003 -12.046 20.6869 -3.67485 -0.0 0.0 -0.0 -0.207998 13.6859 1.27352 -15.0375 -35.0381 66.0222 0.602512 -16.6187 0.0879984 -82.5537 -8.14482 5.23808 -6.37746 15.6415 -35.4856 -0.0 0.0 -0.0 10.7827 3.24022 -21.4446 61.8571 -67.2822 -1.6633 0.1965 5.55982 -0.00954139 74.2329 3.19102 8.25184 -2.36627 10.5987 20.9182 0.0 0.0 0.0 23.4158 7.56308 9.46279 -45.9637 -0.889087 6.81211 34.4839 -5.12757 -4.4253 5.9744 -0.0 -0.0 -0.0 0.0 -0.0 51.6682 2.65544 -5.67568 -26.2392 -0.169643 -3.98804 31.5452 -4.5155 4.05228 -0.939141 0.0 0.0 0.0 0.0 0.0 
1157.3674972 712.792 -1726.86686416 -22.1557539215 23.2881168054 3.42809244821 9.06156 0.113131 1.74109 9.06325 0.00212894 1.74476 9.06003 -0.0914253 1.74237 9.05584 0.184854 1.73495 -17.5742 8.46988 -3.10877 -17.937 17.9815 0.347517 -0.0 0.0 -0.0 -0.906067 16.486 0.518866 -22.5157 -38.5844 67.3105 0.545037 -15.1095 0.072286 -83.07 -8.20985 5.22789 -4.97057 16.2776 -24.7306 -0.0 0.0 -0.0 9.80307 6.03999 -19.4143 65.8127 -70.6889 -6.98787 0.182333 5.16122 -0.00821792 77.882 3.59659 8.48589 -3.48751 1.60823 24.8445 0.0 0.0 0.0 34.7482 17.2247 0.830447 -66.4794 -2.93874 9.19868 26.4628 -19.5697 -3.89258 3.8777 -0.0 -0.0 -0.0 0.0 -0.0 43.2604 9.11411 -2.56488 -29.047 -0.0793886 -4.40945 40.8146 -11.0767 4.95645 9.38528 -0.0 -0.0 0.0 0.0 0.0 
1147.29968512 718.084 -1747.44304724 -24.0153084715 26.7435186893 5.4794282335 9.52266 0.153212 1.75016 9.52437 0.0415518 1.75636 9.52208 -0.0384951 1.75642 9.51785 0.23934 1.74047 -17.8613 7.47059 -3.41621 -18.1528 16.221 -0.297833 -0.0 0.0 -0.0 -1.10222 16.3642 0.194589 -23.5824 -40.5352 67.1354 0.424199 -11.8674 0.0440891 -85.1148 -8.46627 5.18175 -4.66263 12.413 -25.2077 -0.0 0.0 -0.0 9.92823 5.05119 -19.6692 65.6999 -69.9406 -7.22 0.199631 5.64785 -0.00984714 77.2812 3.52881 8.44914 -3.71063 0.641157 25.9967 0.0 0.0 0.0 36.0235 19.9027 -1.16218 -65.3044 -2.79916 9.0828 27.5887 -21.2748 -4.08993 5.2124 -0.0 -0.0 -0.0 0.0 -0.0 42.3349 9.00095 -1.89558 -29.0039 -0.0809301 -4.40301 41.2273 -13.9389 5.02548 10.7976 -0.0 -0.0 0.0 0.0 0.0 
1160.6594598 718.084 -1757.94271045 -23.485799453 24.2188601551 4.24896383288 9.52266 0.153212 1.75016 9.52437 0.0415518 1.75636 9.52208 -0.0384951 1.75642 9.51785 0.23934 1.74047 -17.8613 7.47059 -3.41621 -18.1528 16.221 -0.297833 -0.0 0.0 -0.0 -1.10222 16.3642 0.194589 -23.5824 -40.5352 67.1354 0.424199 -11.8674 0.0440891 -85.1148 -8.46627 5.18175 -4.66263 12.413 -25.2077 -0.0 0.0 -0.0 9.92823 5.05119 -19.6692 65.6999 -69.9406 -7.22 0.199631 5.64785 -0.00984714 77.2812 3.52881 8.44914 -3.71063 0.641157 25.9967 0.0 0.0 0.0 36.0235 19.9027 -1.16218 -65.3044 -2.79916 9.0828 27.5887 -21.2748 -4.08993 5.2124 -0.0 -0.0 -0.0 0.0 -0.0 42.3349 9.00095 -1.89558 -29.0039 -0.0809301 -4.40301 41.2273 -13.9389 5.02548 10.7976 -0.0 -0.0 0.0 0.0 0.0 
1173.76457484 718.084 -1767.28331789 -23.0473229886 21.8189785408 3.12791739743 9.52266 0.153212 1.75016 9.52437 0.0415518 1.75636 9.52208 -0.0384951 1.75642 9.51785 0.23934 1.74047 -17.8613 7.47059 -3.41621 -18.1528 16.221 -0.297833 -0.0 0.0 -0.0 -1.10222 16.3642 0.194589 -23.5824 -40.5352 67.1354 0.424199 -11.8674 0.0440891 -85.1148 -8.46627 5.18175 -4.66263 12.413 -25.2077 -0.0 0.0 -0.0 9.92823 5.05119 -19.6692 65.6999 -69.9406 -7.22 0.199631 5.64785 -0.00984714 77.2812 3.52881 8.44914 -3.71063 0.641157 25.9967 0.0 0.0 0.0 36.0235 19.9027 -1.16218 -65.3044 -2.79916 9.0828 27.5887 -21.2748 -4.08993 5.2124 -0.0 -0.0 -0.0 0.0 -0.0 42.3349 9.00095 -1.89558 -29.0039 -0.0809301 -4.40301 41.2273 -13.9389 5.02548 10.7976 -0.0 -0.0 0.0 0.0 0.0 
1174.55968668 719.035 -1780.10741324 -23.5294298318 22.9140768778 3.81344920793 9.46015 0.183682 1.79167 9.46194 0.0693196 1.79973 9.4604 -0.0146584 1.801 9.45597 0.269914 1.78073 -18.4038 9.32419 -3.5382 -18.8871 19.8261 0.444536 -0.0 0.0 -0.0 -1.26767 13.4977 -0.487914 -23.1383 -39.5174 69.8179 0.405752 -11.3651 0.0403748 -85.0446 -8.4575 5.18348 -4.32067 12.1383 -22.9899 -0.0 0.0 -0.0 10.0844 5.40491 -20.009 63.5038 -69.5508 -10.6685 0.198898 5.62723 -0.00977518 77.4098 3.54328 8.45707 -3.40164 -0.368894 23.1866 0.0 0.0 0.0 38.0208 19.1885 -1.8112 -66.0275 -2.88477 9.15444 25.384 -20.8053 -3.79991 5.13592 -0.0 -0.0 -0.0 0.0 -0.0 41.3223 11.5758 -2.37037 -27.3662 -0.135901 -4.1577 41.4781 -17.159 5.10093 11.0807 -0.0 -0.0 0.0 0.0 0.0 
1166.53981783 724.151 -1801.89442589 -22.9317148648 24.9017776023 4.75803813172 9.0277 0.340141 2.14681 9.03024 0.202877 2.1641 9.03282 0.0856428 2.17189 9.02649 0.427499 2.13115 -18.7304 7.77613 -3.14988 -19.073 16.633 0.202674 -0.0 0.0 -0.0 -1.59854 13.8934 -0.970045 -25.6347 -39.1632 67.5708 0.407289 -11.407 0.0406782 -85.1142 -8.4662 5.18176 -4.35672 10.6853 -24.1548 -0.0 0.0 -0.0 10.0903 4.37028 -20.0013 61.8024 -69.8074 -13.8412 0.190912 5.40265 -0.00900765 77.2365 3.52378 8.44638 -4.77563 -4.73373 30.9947 0.0 0.0 0.0 48.3713 18.4656 -6.7744 -70.6576 -3.45378 9.58719 26.491 -14.1527 -3.74087 3.40122 -0.0 -0.0 -0.0 0.0 -0.0 36.835 12.41 -3.13595 -23.4451 -0.238846 -3.56488 41.6497 -17.0233 5.11332 9.91905 -0.0 -0.0 0.0 0.0 0.0 
